<?xml version="1.0" encoding="utf-8"?>
<!-- Generator: Adobe Illustrator 15.0.2, SVG Export Plug-In . SVG Version: 6.00 Build 0)  -->
<!DOCTYPE svg PUBLIC "-//W3C//DTD SVG 1.1//EN" "http://www.w3.org/Graphics/SVG/1.1/DTD/svg11.dtd">
<svg version="1.1" id="Layer_1" xmlns="http://www.w3.org/2000/svg" xmlns:xlink="http://www.w3.org/1999/xlink" x="0px" y="0px"
	 width="48px" height="76px" viewBox="0 0 48 76" enable-background="new 0 0 48 76" xml:space="preserve">
<line fill="none" x1="0.333" y1="-57.333" x2="0.333" y2="-157.333"/>
<g>
	<g>
		<path fill="#A7B9C4" d="M14.773,27.005c0,2.432-2.426,4.403-5.418,4.403h-2.71c-2.993,0-5.418-1.972-5.418-4.403V4.994
			c0-2.431,2.425-4.402,5.418-4.402h2.71c2.992,0,5.418,1.971,5.418,4.402V27.005z"/>
		<path fill="#444E57" d="M9.355,31.908h-2.71c-3.264,0-5.918-2.199-5.918-4.903V4.994c0-2.703,2.655-4.902,5.918-4.902h2.71
			c3.263,0,5.918,2.199,5.918,4.902v22.011C15.273,29.709,12.618,31.908,9.355,31.908z M6.646,1.092
			c-2.712,0-4.918,1.75-4.918,3.902v22.011c0,2.152,2.207,3.903,4.918,3.903h2.71c2.711,0,4.918-1.751,4.918-3.903V4.994
			c0-2.152-2.207-3.902-4.918-3.902H6.646z"/>
	</g>
	<linearGradient id="SVGID_1_" gradientUnits="userSpaceOnUse" x1="2.9199" y1="15.9497" x2="13.0791" y2="15.9497">
		<stop  offset="0" style="stop-color:#042945;stop-opacity:0.5"/>
		<stop  offset="0.2194" style="stop-color:#062A45;stop-opacity:0.4161"/>
		<stop  offset="0.3544" style="stop-color:#0D2B45;stop-opacity:0.3645"/>
		<stop  offset="0.4666" style="stop-color:#172D45;stop-opacity:0.3216"/>
		<stop  offset="0.5664" style="stop-color:#213045;stop-opacity:0.2835"/>
		<stop  offset="0.6579" style="stop-color:#2A3245;stop-opacity:0.2485"/>
		<stop  offset="0.7433" style="stop-color:#313544;stop-opacity:0.2158"/>
		<stop  offset="0.8241" style="stop-color:#343642;stop-opacity:0.1849"/>
		<stop  offset="0.9012" style="stop-color:#33333A;stop-opacity:0.1554"/>
		<stop  offset="0.9728" style="stop-color:#1B1B1C;stop-opacity:0.1281"/>
		<stop  offset="0.9939" style="stop-color:#000000;stop-opacity:0.12"/>
	</linearGradient>
	<path fill="url(#SVGID_1_)" d="M13.079,25.359c0,2.078-1.819,3.763-4.063,3.763H6.984c-2.244,0-4.064-1.685-4.064-3.763V6.541
		c0-2.079,1.82-3.764,4.064-3.764h2.032c2.244,0,4.063,1.685,4.063,3.764V25.359z"/>
	<rect x="3.787" y="9.402" fill="#444E57" width="8.426" height="1"/>
	<rect x="3.787" y="10.419" fill="#95A0AB" width="8.426" height="1"/>
	<rect x="3.787" y="19.561" fill="#444E57" width="8.426" height="1"/>
	<rect x="3.787" y="20.578" fill="#95A0AB" width="8.426" height="1"/>
	<rect x="3.787" y="14.483" fill="#444E57" width="8.426" height="1"/>
	<rect x="3.787" y="15.499" fill="#95A0AB" width="8.426" height="1"/>
</g>
<g>
	<g>
		<path fill="#6E7983" d="M30.773,26.955c0,2.432-2.426,4.403-5.418,4.403h-2.71c-2.993,0-5.419-1.972-5.419-4.403V4.944
			c0-2.431,2.426-4.402,5.419-4.402h2.71c2.992,0,5.418,1.971,5.418,4.402V26.955z"/>
		<path fill="#444E57" d="M25.355,31.858h-2.71c-3.264,0-5.919-2.199-5.919-4.903V4.944c0-2.703,2.655-4.902,5.919-4.902h2.71
			c3.263,0,5.918,2.199,5.918,4.902v22.011C31.273,29.659,28.618,31.858,25.355,31.858z M22.646,1.042
			c-2.712,0-4.919,1.75-4.919,3.902v22.011c0,2.152,2.207,3.903,4.919,3.903h2.71c2.711,0,4.918-1.751,4.918-3.903V4.944
			c0-2.152-2.207-3.902-4.918-3.902H22.646z"/>
	</g>
	<linearGradient id="SVGID_2_" gradientUnits="userSpaceOnUse" x1="18.9199" y1="15.8999" x2="29.0791" y2="15.8999">
		<stop  offset="0" style="stop-color:#042945;stop-opacity:0.5"/>
		<stop  offset="0.2194" style="stop-color:#062A45;stop-opacity:0.4161"/>
		<stop  offset="0.3544" style="stop-color:#0D2B45;stop-opacity:0.3645"/>
		<stop  offset="0.4666" style="stop-color:#172D45;stop-opacity:0.3216"/>
		<stop  offset="0.5664" style="stop-color:#213045;stop-opacity:0.2835"/>
		<stop  offset="0.6579" style="stop-color:#2A3245;stop-opacity:0.2485"/>
		<stop  offset="0.7433" style="stop-color:#313544;stop-opacity:0.2158"/>
		<stop  offset="0.8241" style="stop-color:#343642;stop-opacity:0.1849"/>
		<stop  offset="0.9012" style="stop-color:#33333A;stop-opacity:0.1554"/>
		<stop  offset="0.9728" style="stop-color:#1B1B1C;stop-opacity:0.1281"/>
		<stop  offset="0.9939" style="stop-color:#000000;stop-opacity:0.12"/>
	</linearGradient>
	<path fill="url(#SVGID_2_)" d="M29.079,25.31c0,2.078-1.819,3.763-4.063,3.763h-2.031c-2.244,0-4.064-1.685-4.064-3.763V6.491
		c0-2.079,1.82-3.764,4.064-3.764h2.031c2.244,0,4.063,1.685,4.063,3.764V25.31z"/>
	<rect x="19.787" y="9.353" fill="#444E57" width="8.426" height="1"/>
	<rect x="19.787" y="10.37" fill="#95A0AB" width="8.426" height="1"/>
	<rect x="19.787" y="19.511" fill="#444E57" width="8.426" height="1"/>
	<rect x="19.787" y="20.528" fill="#95A0AB" width="8.426" height="1"/>
	<rect x="19.787" y="14.433" fill="#444E57" width="8.426" height="1"/>
	<rect x="19.787" y="15.449" fill="#95A0AB" width="8.426" height="1"/>
</g>
<g>
	<g>
		<path fill="#EAF7FA" d="M46.5,27.005c0,2.432-2.426,4.403-5.418,4.403h-2.71c-2.993,0-5.419-1.972-5.419-4.403V4.994
			c0-2.431,2.426-4.402,5.419-4.402h2.71c2.992,0,5.418,1.971,5.418,4.402V27.005z"/>
		<path fill="#444E57" d="M41.082,31.908h-2.71c-3.264,0-5.919-2.199-5.919-4.903V4.994c0-2.703,2.655-4.902,5.919-4.902h2.71
			C44.345,0.092,47,2.291,47,4.994v22.011C47,29.709,44.345,31.908,41.082,31.908z M38.372,1.092c-2.712,0-4.919,1.75-4.919,3.902
			v22.011c0,2.152,2.207,3.903,4.919,3.903h2.71c2.711,0,4.918-1.751,4.918-3.903V4.994c0-2.152-2.207-3.902-4.918-3.902H38.372z"/>
	</g>
	<linearGradient id="SVGID_3_" gradientUnits="userSpaceOnUse" x1="34.6465" y1="15.9497" x2="44.8057" y2="15.9497">
		<stop  offset="0" style="stop-color:#9AC1D7;stop-opacity:0.5"/>
		<stop  offset="0.2194" style="stop-color:#99BFD4;stop-opacity:0.4161"/>
		<stop  offset="0.3544" style="stop-color:#98BBCF;stop-opacity:0.3645"/>
		<stop  offset="0.4666" style="stop-color:#96B5C8;stop-opacity:0.3216"/>
		<stop  offset="0.5664" style="stop-color:#92ACBC;stop-opacity:0.2835"/>
		<stop  offset="0.6579" style="stop-color:#8BA0AD;stop-opacity:0.2485"/>
		<stop  offset="0.7433" style="stop-color:#7F8F99;stop-opacity:0.2158"/>
		<stop  offset="0.8241" style="stop-color:#6F7981;stop-opacity:0.1849"/>
		<stop  offset="0.9012" style="stop-color:#595E62;stop-opacity:0.1554"/>
		<stop  offset="0.9728" style="stop-color:#2E2E30;stop-opacity:0.1281"/>
		<stop  offset="0.9939" style="stop-color:#000000;stop-opacity:0.12"/>
	</linearGradient>
	<path fill="url(#SVGID_3_)" d="M44.806,25.359c0,2.078-1.819,3.763-4.063,3.763h-2.031c-2.244,0-4.064-1.685-4.064-3.763V6.541
		c0-2.079,1.82-3.764,4.064-3.764h2.031c2.244,0,4.063,1.685,4.063,3.764V25.359z"/>
	<rect x="35.514" y="9.402" fill="#444E57" width="8.426" height="1"/>
	<rect x="35.514" y="10.419" fill="#95A0AB" width="8.426" height="1"/>
	<rect x="35.514" y="19.561" fill="#444E57" width="8.426" height="1"/>
	<rect x="35.514" y="20.578" fill="#95A0AB" width="8.426" height="1"/>
	<rect x="35.514" y="14.483" fill="#444E57" width="8.426" height="1"/>
	<rect x="35.514" y="15.499" fill="#95A0AB" width="8.426" height="1"/>
</g>
<g>
	<g>
		<path fill="#A7B9C4" d="M5.123,45.493c-2.044,0-3.703-2.173-3.703-4.852v-2.428c0-2.681,1.659-4.852,3.703-4.852h18.502
			c2.043,0,3.699,2.171,3.699,4.852v2.428c0,2.679-1.656,4.852-3.699,4.852H5.123z"/>
		<path fill="#444E57" d="M1,40.642v-2.428c0-2.921,1.848-5.3,4.123-5.3h18.502c2.271,0,4.12,2.379,4.12,5.3v2.428
			c0,2.921-1.849,5.302-4.12,5.302H5.123C2.848,45.943,1,43.562,1,40.642z M26.903,38.214c0-2.429-1.471-4.406-3.278-4.406H5.123
			c-1.809,0-3.281,1.978-3.281,4.406v2.428c0,2.428,1.472,4.404,3.281,4.404h18.502c1.808,0,3.278-1.977,3.278-4.404V38.214z"/>
	</g>
	
		<linearGradient id="SVGID_4_" gradientUnits="userSpaceOnUse" x1="8.7666" y1="31.4219" x2="17.8643" y2="31.4219" gradientTransform="matrix(0 1 -1 0 45.8379 26.1113)">
		<stop  offset="0" style="stop-color:#042945;stop-opacity:0.5"/>
		<stop  offset="0.2194" style="stop-color:#062A45;stop-opacity:0.4161"/>
		<stop  offset="0.3544" style="stop-color:#0D2B45;stop-opacity:0.3645"/>
		<stop  offset="0.4666" style="stop-color:#172D45;stop-opacity:0.3216"/>
		<stop  offset="0.5664" style="stop-color:#213045;stop-opacity:0.2835"/>
		<stop  offset="0.6579" style="stop-color:#2A3245;stop-opacity:0.2485"/>
		<stop  offset="0.7433" style="stop-color:#313544;stop-opacity:0.2158"/>
		<stop  offset="0.8241" style="stop-color:#343642;stop-opacity:0.1849"/>
		<stop  offset="0.9012" style="stop-color:#33333A;stop-opacity:0.1554"/>
		<stop  offset="0.9728" style="stop-color:#1B1B1C;stop-opacity:0.1281"/>
		<stop  offset="0.9939" style="stop-color:#000000;stop-opacity:0.12"/>
	</linearGradient>
	<path fill="url(#SVGID_4_)" d="M6.505,43.976c-1.747,0-3.162-1.629-3.162-3.639v-1.818c0-2.012,1.415-3.641,3.162-3.641h15.817
		c1.748,0,3.166,1.629,3.166,3.641v1.818c0,2.01-1.418,3.639-3.166,3.639H6.505z"/>
	<rect x="19.079" y="35.653" fill="#444E57" width="0.84" height="7.547"/>
	<rect x="18.224" y="35.653" fill="#95A0AB" width="0.84" height="7.547"/>
	<rect x="10.54" y="35.653" fill="#444E57" width="0.838" height="7.547"/>
	<rect x="9.684" y="35.653" fill="#95A0AB" width="0.841" height="7.547"/>
	<rect x="14.807" y="35.653" fill="#444E57" width="0.842" height="7.547"/>
	<rect x="13.954" y="35.653" fill="#95A0AB" width="0.84" height="7.547"/>
</g>
<g>
	<g>
		<path fill="#6E7983" d="M5.163,59.824c-2.044,0-3.7-2.174-3.7-4.854v-2.426c0-2.68,1.656-4.855,3.7-4.855h18.502
			c2.045,0,3.703,2.176,3.703,4.855v2.426c0,2.68-1.658,4.854-3.703,4.854H5.163z"/>
		<path fill="#444E57" d="M1.043,54.971v-2.426c0-2.923,1.848-5.303,4.12-5.303h18.502c2.274,0,4.122,2.38,4.122,5.303v2.426
			c0,2.923-1.848,5.301-4.122,5.301H5.163C2.891,60.271,1.043,57.894,1.043,54.971z M26.949,52.545c0-2.43-1.474-4.406-3.284-4.406
			H5.163c-1.809,0-3.28,1.977-3.28,4.406v2.426c0,2.431,1.471,4.405,3.28,4.405h18.502c1.811,0,3.284-1.975,3.284-4.405V52.545z"/>
	</g>
	
		<linearGradient id="SVGID_5_" gradientUnits="userSpaceOnUse" x1="23.0957" y1="31.3809" x2="32.1973" y2="31.3809" gradientTransform="matrix(0 1 -1 0 45.8379 26.1113)">
		<stop  offset="0" style="stop-color:#042945;stop-opacity:0.5"/>
		<stop  offset="0.2194" style="stop-color:#062A45;stop-opacity:0.4161"/>
		<stop  offset="0.3544" style="stop-color:#0D2B45;stop-opacity:0.3645"/>
		<stop  offset="0.4666" style="stop-color:#172D45;stop-opacity:0.3216"/>
		<stop  offset="0.5664" style="stop-color:#213045;stop-opacity:0.2835"/>
		<stop  offset="0.6579" style="stop-color:#2A3245;stop-opacity:0.2485"/>
		<stop  offset="0.7433" style="stop-color:#313544;stop-opacity:0.2158"/>
		<stop  offset="0.8241" style="stop-color:#343642;stop-opacity:0.1849"/>
		<stop  offset="0.9012" style="stop-color:#33333A;stop-opacity:0.1554"/>
		<stop  offset="0.9728" style="stop-color:#1B1B1C;stop-opacity:0.1281"/>
		<stop  offset="0.9939" style="stop-color:#000000;stop-opacity:0.12"/>
	</linearGradient>
	<path fill="url(#SVGID_5_)" d="M6.547,58.309c-1.746,0-3.164-1.631-3.164-3.641v-1.82c0-2.01,1.418-3.641,3.164-3.641h15.819
		c1.746,0,3.164,1.631,3.164,3.641v1.82c0,2.01-1.418,3.641-3.164,3.641H6.547z"/>
	<rect x="19.121" y="49.984" fill="#444E57" width="0.839" height="7.547"/>
	<rect x="18.265" y="49.984" fill="#95A0AB" width="0.843" height="7.547"/>
	<rect x="10.583" y="49.984" fill="#444E57" width="0.839" height="7.547"/>
	<rect x="9.727" y="49.984" fill="#95A0AB" width="0.841" height="7.547"/>
	<rect x="14.849" y="49.984" fill="#444E57" width="0.841" height="7.547"/>
	<rect x="13.994" y="49.984" fill="#95A0AB" width="0.84" height="7.547"/>
</g>
<g>
	<g>
		<path fill="#EAF7FA" d="M5.123,73.908c-2.044,0-3.703-2.172-3.703-4.851v-2.429c0-2.681,1.659-4.852,3.703-4.852h18.502
			c2.043,0,3.699,2.171,3.699,4.852v2.429c0,2.679-1.656,4.851-3.699,4.851H5.123z"/>
		<path fill="#444E57" d="M1,69.058v-2.429c0-2.922,1.848-5.302,4.123-5.302h18.502c2.271,0,4.12,2.38,4.12,5.302v2.429
			c0,2.92-1.849,5.3-4.12,5.3H5.123C2.848,74.357,1,71.978,1,69.058z M26.903,66.629c0-2.428-1.471-4.404-3.278-4.404H5.123
			c-1.809,0-3.281,1.977-3.281,4.404v2.429c0,2.428,1.472,4.405,3.281,4.405h18.502c1.808,0,3.278-1.978,3.278-4.405V66.629z"/>
	</g>
	
		<linearGradient id="SVGID_6_" gradientUnits="userSpaceOnUse" x1="37.1836" y1="31.4219" x2="46.2822" y2="31.4219" gradientTransform="matrix(0 1 -1 0 45.8379 26.1113)">
		<stop  offset="0" style="stop-color:#9AC1D7;stop-opacity:0.5"/>
		<stop  offset="0.2194" style="stop-color:#99BFD4;stop-opacity:0.4161"/>
		<stop  offset="0.3544" style="stop-color:#98BBCF;stop-opacity:0.3645"/>
		<stop  offset="0.4666" style="stop-color:#96B5C8;stop-opacity:0.3216"/>
		<stop  offset="0.5664" style="stop-color:#92ACBC;stop-opacity:0.2835"/>
		<stop  offset="0.6579" style="stop-color:#8BA0AD;stop-opacity:0.2485"/>
		<stop  offset="0.7433" style="stop-color:#7F8F99;stop-opacity:0.2158"/>
		<stop  offset="0.8241" style="stop-color:#6F7981;stop-opacity:0.1849"/>
		<stop  offset="0.9012" style="stop-color:#595E62;stop-opacity:0.1554"/>
		<stop  offset="0.9728" style="stop-color:#2E2E30;stop-opacity:0.1281"/>
		<stop  offset="0.9939" style="stop-color:#000000;stop-opacity:0.12"/>
	</linearGradient>
	<path fill="url(#SVGID_6_)" d="M6.505,72.394c-1.747,0-3.162-1.631-3.162-3.642v-1.819c0-2.009,1.415-3.638,3.162-3.638h15.817
		c1.748,0,3.166,1.629,3.166,3.638v1.819c0,2.011-1.418,3.642-3.166,3.642H6.505z"/>
	<rect x="19.079" y="64.068" fill="#444E57" width="0.84" height="7.549"/>
	<rect x="18.224" y="64.068" fill="#95A0AB" width="0.84" height="7.549"/>
	<rect x="10.54" y="64.068" fill="#444E57" width="0.838" height="7.549"/>
	<rect x="9.684" y="64.068" fill="#95A0AB" width="0.841" height="7.549"/>
	<rect x="14.807" y="64.068" fill="#444E57" width="0.842" height="7.549"/>
	<rect x="13.954" y="64.068" fill="#95A0AB" width="0.84" height="7.549"/>
</g>
</svg>
